<svg height="512" width="512" xmlns="http://www.w3.org/2000/svg"><path d="M512 280c0-41.662-29.55-75.871-66.858-78.776-4.425-14.913-16.381-26.614-31.446-30.673C403.65 87.968 336.59 25 256 25S108.35 87.968 98.305 170.551c-15.065 4.059-27.022 15.759-31.446 30.673-1.296.101-2.582.24-3.858.416V104c0-8.284-6.716-15-15-15s-15 6.716-15 15v109.646C13.164 227.73 0 252.202 0 280c0 41.662 29.55 75.871 66.858 78.776 4.411 14.866 16.305 26.537 31.303 30.632C104.551 426.602 137.011 455 176 455h3.469c6.276 18.58 23.86 32 44.531 32h64c25.916 0 47-21.084 47-47s-21.084-47-47-47h-64c-20.671 0-38.255 13.42-44.531 32H176c-22.683 0-41.81-15.496-47.366-36.456C146.282 382.456 159 365.69 159 346V214c0-19.759-12.806-36.572-30.55-42.606C137.82 105.138 191.596 55 256 55s118.18 50.138 127.55 116.394C365.806 177.428 353 194.241 353 214v132c0 24.813 20.187 45 45 45h4c20.375 0 37.621-13.616 43.142-32.224C482.45 355.871 512 321.662 512 280zM224 423h64c9.374 0 17 7.626 17 17s-7.626 17-17 17h-64c-9.374 0-17-7.626-17-17s7.626-17 17-17zM30 280c0-23.787 15.425-44.268 35-48.287v96.573C45.425 324.268 30 303.787 30 280zm99 66c0 8.271-6.729 15-15 15h-4c-8.271 0-15-6.729-15-15V214c0-8.271 6.729-15 15-15h4c8.271 0 15 6.729 15 15zm288 0c0 8.271-6.729 15-15 15h-4c-8.271 0-15-6.729-15-15V214c0-8.271 6.729-15 15-15h4c8.271 0 15 6.729 15 15zm30-17.713v-96.573c19.575 4.019 35 24.5 35 48.287s-15.425 44.267-35 48.286z"/></svg>