<svg height="314pt" viewBox="0 0 314 314" width="314pt" xmlns="http://www.w3.org/2000/svg"><path d="M157 314c86.57 0 157-70.43 157-157S243.57 0 157 0 0 70.43 0 157s70.43 157 157 157zm0-300c78.852 0 143 64.148 143 143s-64.148 143-143 143S14 235.852 14 157 78.148 14 157 14zm0 0"/><path d="M118.3 142.89c16.013 0 28.99-12.98 28.99-28.988.003-16.011-12.977-28.992-28.99-28.992s-28.987 12.98-28.987 28.988c.015 16.004 12.984 28.973 28.988 28.993zm0-43.98c8.278 0 14.99 6.711 14.99 14.988.003 8.282-6.708 14.993-14.99 14.993-8.277 0-14.987-6.711-14.987-14.993.007-8.273 6.714-14.976 14.988-14.988zm46.653 102.95c0 16.011 12.98 28.988 28.988 28.988 16.012 0 28.993-12.977 28.993-28.989s-12.98-28.992-28.993-28.992c-16.004.02-28.968 12.988-28.988 28.992zm43.98 0c0 8.277-6.71 14.988-14.992 14.988-8.277 0-14.988-6.711-14.988-14.989s6.711-14.988 14.988-14.992c8.278.012 14.98 6.715 14.993 14.992zM103.7 238.727a6.999 6.999 0 009.687-2.04L212.34 84.962a7.001 7.001 0 10-11.727-7.648L101.66 229.038a6.998 6.998 0 002.04 9.688zm0 0"/></svg>